<svg width="40" height="40" viewBox="0 0 40 40" fill="none" xmlns="http://www.w3.org/2000/svg">
<path d="M19.9993 20.6673C20.3675 20.6673 20.666 20.3688 20.666 20.0007C20.666 19.6325 20.3675 19.334 19.9993 19.334C19.6312 19.334 19.3327 19.6325 19.3327 20.0007C19.3327 20.3688 19.6312 20.6673 19.9993 20.6673Z" stroke="#18181B" stroke-width="1.33" stroke-linecap="round" stroke-linejoin="round"/>
<path d="M24.666 20.6673C25.0342 20.6673 25.3327 20.3688 25.3327 20.0007C25.3327 19.6325 25.0342 19.334 24.666 19.334C24.2978 19.334 23.9993 19.6325 23.9993 20.0007C23.9993 20.3688 24.2978 20.6673 24.666 20.6673Z" stroke="#18181B" stroke-width="1.33" stroke-linecap="round" stroke-linejoin="round"/>
<path d="M15.3327 20.6673C15.7009 20.6673 15.9993 20.3688 15.9993 20.0007C15.9993 19.6325 15.7009 19.334 15.3327 19.334C14.9645 19.334 14.666 19.6325 14.666 20.0007C14.666 20.3688 14.9645 20.6673 15.3327 20.6673Z" stroke="#18181B" stroke-width="1.33" stroke-linecap="round" stroke-linejoin="round"/>
</svg>
