<svg width="28" height="28" viewBox="0 0 28 28" fill="none" xmlns="http://www.w3.org/2000/svg">
<path d="M6 0.5H22C25.0376 0.5 27.5 2.96243 27.5 6V22C27.5 25.0376 25.0376 27.5 22 27.5H6C2.96243 27.5 0.5 25.0376 0.5 22V6C0.5 2.96243 2.96243 0.5 6 0.5Z" fill="white"/>
<path d="M6 0.5H22C25.0376 0.5 27.5 2.96243 27.5 6V22C27.5 25.0376 25.0376 27.5 22 27.5H6C2.96243 27.5 0.5 25.0376 0.5 22V6C0.5 2.96243 2.96243 0.5 6 0.5Z" stroke="#E4E4E7"/>
<path d="M16 18L12 14L16 10" stroke="#18181B" stroke-width="1.33" stroke-linecap="round" stroke-linejoin="round"/>
</svg>
