<svg width="16" height="16" viewBox="0 0 16 16" fill="none" xmlns="http://www.w3.org/2000/svg">
<path d="M11.9993 3.33398L10.39 1.72465C10.14 1.47459 9.80094 1.33406 9.44735 1.33398H3.99935C3.64573 1.33398 3.30659 1.47446 3.05654 1.72451C2.80649 1.97456 2.66602 2.3137 2.66602 2.66732V13.334C2.66602 13.6876 2.80649 14.0267 3.05654 14.2768C3.30659 14.5268 3.64573 14.6673 3.99935 14.6673H11.9993C12.353 14.6673 12.6921 14.5268 12.9422 14.2768C13.1922 14.0267 13.3327 13.6876 13.3327 13.334M5.33268 12.0007H5.99935M14.2513 8.41792C14.5169 8.15235 14.6661 7.79216 14.6661 7.41659C14.6661 7.04101 14.5169 6.68082 14.2513 6.41525C13.9858 6.14968 13.6256 6.00049 13.25 6.00049C12.8744 6.00049 12.5142 6.14968 12.2487 6.41525L9.57533 9.08992C9.41683 9.24833 9.30081 9.44414 9.238 9.65925L8.68 11.5726C8.66327 11.63 8.66227 11.6908 8.6771 11.7486C8.69193 11.8065 8.72204 11.8594 8.7643 11.9016C8.80655 11.9439 8.85939 11.974 8.91727 11.9888C8.97516 12.0037 9.03597 12.0027 9.09333 11.9859L11.0067 11.4279C11.2218 11.3651 11.4176 11.2491 11.576 11.0906L14.2513 8.41792Z" stroke="#09090B" stroke-width="1.33" stroke-linecap="round" stroke-linejoin="round"/>
</svg>
