<svg width="32" height="32" viewBox="0 0 32 32" fill="none" xmlns="http://www.w3.org/2000/svg">
<path d="M0 8C0 3.58172 3.58172 0 8 0H24C28.4183 0 32 3.58172 32 8V24C32 28.4183 28.4183 32 24 32H8C3.58172 32 0 28.4183 0 24V8Z" fill="#18181B"/>
<path d="M12.6667 9.33398H19.3333M11.3333 12.0007H20.6667M11.3333 14.6673H20.6667C21.403 14.6673 22 15.2643 22 16.0007V21.334C22 22.0704 21.403 22.6673 20.6667 22.6673H11.3333C10.597 22.6673 10 22.0704 10 21.334V16.0007C10 15.2643 10.597 14.6673 11.3333 14.6673Z" stroke="#FAFAFA" stroke-width="1.5" stroke-linecap="round" stroke-linejoin="round"/>
</svg>
