<svg width="16" height="16" viewBox="0 0 16 16" fill="none" xmlns="http://www.w3.org/2000/svg">
<path d="M13.3327 4.66602H7.33268M9.33268 11.3327H3.33268M9.33268 11.3327C9.33268 12.4373 10.2281 13.3327 11.3327 13.3327C12.4373 13.3327 13.3327 12.4373 13.3327 11.3327C13.3327 10.2281 12.4373 9.33268 11.3327 9.33268C10.2281 9.33268 9.33268 10.2281 9.33268 11.3327ZM6.66602 4.66602C6.66602 5.77059 5.77059 6.66602 4.66602 6.66602C3.56145 6.66602 2.66602 5.77059 2.66602 4.66602C2.66602 3.56145 3.56145 2.66602 4.66602 2.66602C5.77059 2.66602 6.66602 3.56145 6.66602 4.66602Z" stroke="#18181B" stroke-width="1.33" stroke-linecap="round" stroke-linejoin="round"/>
</svg>
