<svg width="16" height="16" viewBox="0 0 16 16" fill="none" xmlns="http://www.w3.org/2000/svg">
<path d="M2 4.00065L4 1.33398H12L14 4.00065M2 4.00065V13.334C2 13.6876 2.14048 14.0267 2.39052 14.2768C2.64057 14.5268 2.97971 14.6673 3.33333 14.6673H12.6667C13.0203 14.6673 13.3594 14.5268 13.6095 14.2768C13.8595 14.0267 14 13.6876 14 13.334V4.00065M2 4.00065H14M10.6667 6.66732C10.6667 7.37456 10.3857 8.05284 9.88562 8.55294C9.38552 9.05303 8.70724 9.33398 8 9.33398C7.29276 9.33398 6.61448 9.05303 6.11438 8.55294C5.61428 8.05284 5.33333 7.37456 5.33333 6.66732" stroke="#3F3F46" stroke-width="1.5" stroke-linecap="round" stroke-linejoin="round"/>
</svg>
